# xmcd CD database file
# Generated: Sat Oct 18 00:03:58 2003 by KSCD
# 
# Track frame offsets:
#       162
#       9392
#       20997
#       35230
#       43927
#       60110
#       70315
#       85710
#       94570
#       107820
#       118215
#       134255
#       145042
#       162730
#       175955
#       188577
#       197845
#       215767
#       228690
#
# Disc length: 3233 seconds
#
# Revision: 1
# Processed by: cddbd v1.4PL0 Copyright (c) Steve Scherf et al.
# Submitted via: Kscd 1.3.3
#
DISCID=180c9f13
DTITLE=Backwards Sam Firk (Mike Stewart - True Blues and Gospel
DYEAR=1900
DGENRE=
TTITLE0=I'm glad blues
TTITLE1=Poor boy, long ways from home
TTITLE2=Hey Hey Hey
TTITLE3=Cigarette
TTITLE4=Candy man blues
TTITLE5=If you don't want me that freight train whistle's gonna blow Mamma
TTITLE6=Old reliable one way gal
TTITLE7=Be ready when he comes
TTITLE8=Old country dump
TTITLE9=Get Back, Old Devil
TTITLE10=Poor Boy, Long Ways from Home
TTITLE11=West Side Blues
TTITLE12=I be's troubled
TTITLE13=Babe's piece
TTITLE14=Fixin' to die
TTITLE15=The unbroken circle
TTITLE16=Nineteen fifty-nine blues
TTITLE17=Spanish flangdang
TTITLE18=Saturday night friction
EXTD=
EXTT0=
EXTT1=
EXTT2=
EXTT3=
EXTT4=
EXTT5=
EXTT6=
EXTT7=
EXTT8=
EXTT9=
EXTT10=
EXTT11=
EXTT12=
EXTT13=
EXTT14=
EXTT15=
EXTT16=Add-on track
EXTT17=Add-on track, but very nice
EXTT18=Add-on track, but nice ragtime
PLAYORDER=
